<svg width="80" height="34" viewBox="0 0 80 34" fill="none" xmlns="http://www.w3.org/2000/svg">
<path fill-rule="evenodd" clip-rule="evenodd" d="M17.5634 25.5048C22.9241 25.5048 27.272 21.2062 27.272 15.9011C27.272 10.5959 22.9241 6.29731 17.5634 6.29731C12.2027 6.29731 7.85487 10.5959 7.85487 15.9011C7.85487 21.2062 12.2027 25.5048 17.5634 25.5048ZM31.4335 15.9011C31.4335 23.4777 25.2237 29.6197 17.5634 29.6197C9.90316 29.6197 3.6933 23.4777 3.6933 15.9011C3.6933 8.32446 9.90316 2.1824 17.5634 2.1824C25.2237 2.1824 31.4335 8.32446 31.4335 15.9011Z" fill="#4949E4"/>
<path d="M4.54456 21.0999C4.00884 21.0999 3.47836 20.9955 2.98342 20.7927C2.48848 20.5899 2.03876 20.2927 1.65995 19.9181C1.28114 19.5434 0.980654 19.0986 0.775643 18.609C0.570632 18.1195 0.465115 17.5948 0.465115 17.065V15.0475C0.465115 13.9774 0.89491 12.9511 1.65995 12.1944C2.425 11.4377 3.46262 11.0126 4.54456 11.0126L4.54456 21.0999Z" fill="#FF6584"/>
<path d="M30.5823 11.0126C31.118 11.0126 31.6485 11.117 32.1434 11.3197C32.6384 11.5225 33.0881 11.8197 33.4669 12.1944C33.8457 12.5691 34.1462 13.0139 34.3512 13.5034C34.5562 13.9929 34.6618 14.5176 34.6618 15.0475V17.065C34.6618 17.5948 34.5562 18.1195 34.3512 18.6091C34.1462 19.0986 33.8457 19.5434 33.4669 19.9181C33.0881 20.2927 32.6384 20.59 32.1434 20.7927C31.6485 20.9955 31.118 21.0999 30.5823 21.0999V11.0126H30.5823Z" fill="#FF6584"/>
<path d="M32.72 15.3645H32.0728C32.0728 7.24552 25.3946 0.640188 17.1859 0.640188C8.97724 0.640188 2.29899 7.24552 2.29899 15.3645H1.65173C1.65173 6.89249 8.62032 0 17.1859 0C25.7515 0 32.72 6.8925 32.72 15.3645Z" fill="#FF6584"/>
<path d="M20.2103 25.7533L26.8688 25.7533L30.6142 30.8095L23.7476 30.8095L20.2103 25.7533Z" fill="#4949E4"/>
<path d="M36.5293 29.6273C35.5751 29.6273 34.8053 29.3126 34.2197 28.6832C33.6342 28.0431 33.3415 27.1523 33.3415 26.0108V21.5461C33.3415 21.4288 33.3794 21.3327 33.4553 21.2581C33.5312 21.1834 33.6288 21.146 33.7481 21.146H35.7811C35.9004 21.146 35.998 21.1834 36.0739 21.2581C36.1606 21.3327 36.204 21.4288 36.204 21.5461V25.9148C36.204 26.9603 36.6757 27.483 37.619 27.483C38.0744 27.483 38.4322 27.3443 38.6924 27.0669C38.9527 26.7896 39.0828 26.4055 39.0828 25.9148V21.5461C39.0828 21.4288 39.1207 21.3327 39.1966 21.2581C39.2834 21.1834 39.381 21.146 39.4894 21.146H41.5224C41.6417 21.146 41.7393 21.1834 41.8152 21.2581C41.8911 21.3327 41.929 21.4288 41.929 21.5461V29.0672C41.929 29.1739 41.8911 29.2699 41.8152 29.3553C41.7393 29.43 41.6417 29.4673 41.5224 29.4673H39.6358C39.5273 29.4673 39.4297 29.43 39.343 29.3553C39.2671 29.2699 39.2292 29.1739 39.2292 29.0672V28.4592C38.6653 29.2379 37.7654 29.6273 36.5293 29.6273Z" fill="#4949E4"/>
<path d="M49.0142 29.6273C47.9299 29.6273 47.0896 29.2699 46.4932 28.5552V29.0672C46.4932 29.1739 46.4552 29.2699 46.3793 29.3553C46.3034 29.43 46.2059 29.4673 46.0866 29.4673H44.2487C44.1403 29.4673 44.0427 29.43 43.956 29.3553C43.8801 29.2699 43.8421 29.1739 43.8421 29.0672V18.5057C43.8421 18.3883 43.8801 18.2923 43.956 18.2176C44.0427 18.1429 44.1403 18.1056 44.2487 18.1056H46.233C46.3522 18.1056 46.4498 18.1429 46.5257 18.2176C46.6016 18.2923 46.6396 18.3883 46.6396 18.5057V21.9302C47.2468 21.3007 48.0383 20.986 49.0142 20.986C50.0659 20.986 50.8954 21.3221 51.5026 21.9942C52.1098 22.6663 52.4351 23.5784 52.4785 24.7306C52.4893 24.8693 52.4947 25.0613 52.4947 25.3067C52.4947 25.5414 52.4893 25.7281 52.4785 25.8668C52.4242 27.0616 52.099 27.9898 51.5026 28.6512C50.9062 29.3019 50.0768 29.6273 49.0142 29.6273ZM48.1359 27.483C48.6455 27.483 49.0087 27.3337 49.2256 27.0349C49.4533 26.7362 49.5834 26.3255 49.6159 25.8028C49.6376 25.5894 49.6485 25.424 49.6485 25.3067C49.6485 25.1893 49.6376 25.024 49.6159 24.8106C49.5834 24.2879 49.4533 23.8771 49.2256 23.5784C49.0087 23.2797 48.6455 23.1303 48.1359 23.1303C47.6588 23.1303 47.2956 23.2744 47.0462 23.5624C46.7968 23.8505 46.6613 24.2132 46.6396 24.6506L46.6233 25.2427L46.6396 25.8508C46.6721 26.3308 46.8022 26.7256 47.0299 27.0349C47.2685 27.3337 47.6371 27.483 48.1359 27.483Z" fill="#4949E4"/>
<path d="M58.006 29.6273C56.7049 29.6273 55.6802 29.2806 54.9321 28.5872C54.1839 27.8937 53.7936 26.8856 53.7611 25.5627V25.0026C53.8044 23.7438 54.2002 22.7623 54.9483 22.0582C55.7073 21.3434 56.7212 20.986 57.9898 20.986C58.9114 20.986 59.6867 21.1727 60.3156 21.5461C60.9553 21.9088 61.4324 22.4102 61.7468 23.0503C62.0721 23.6904 62.2348 24.4265 62.2348 25.2587V25.6427C62.2348 25.7494 62.1968 25.8454 62.1209 25.9308C62.045 26.0055 61.9474 26.0428 61.8281 26.0428H56.6236V26.1548C56.6453 26.6562 56.77 27.0616 56.9977 27.371C57.2254 27.6804 57.5561 27.8351 57.9898 27.8351C58.2608 27.8351 58.4831 27.7817 58.6566 27.675C58.8301 27.5577 58.9873 27.419 59.1283 27.259C59.2259 27.1416 59.3018 27.0723 59.356 27.0509C59.421 27.0189 59.5186 27.0029 59.6487 27.0029H61.6655C61.7631 27.0029 61.8444 27.0349 61.9095 27.0989C61.9854 27.1523 62.0233 27.227 62.0233 27.323C62.0233 27.6004 61.8607 27.9204 61.5354 28.2831C61.2209 28.6459 60.7601 28.9606 60.1529 29.2273C59.5457 29.494 58.8301 29.6273 58.006 29.6273ZM59.3722 24.4585V24.4265C59.3722 23.9038 59.2475 23.4931 58.9982 23.1944C58.7596 22.885 58.4235 22.7303 57.9898 22.7303C57.5669 22.7303 57.2308 22.885 56.9814 23.1944C56.7428 23.4931 56.6236 23.9038 56.6236 24.4265V24.4585H59.3722Z" fill="#4949E4"/>
<path d="M66.2968 29.6273C65.7221 29.6273 65.1962 29.5206 64.7191 29.3073C64.2529 29.0832 63.8842 28.7845 63.6132 28.4111C63.3529 28.0271 63.2228 27.6057 63.2228 27.147C63.2228 26.4108 63.5264 25.8188 64.1336 25.3707C64.7517 24.9226 65.5974 24.6132 66.6708 24.4425L68.7039 24.1385V23.9145C68.7039 23.5091 68.6171 23.2104 68.4437 23.0183C68.2702 22.8263 67.9774 22.7303 67.5654 22.7303C67.316 22.7303 67.11 22.773 66.9473 22.8583C66.7847 22.9437 66.6166 23.061 66.4431 23.2104C66.2913 23.3384 66.1775 23.4237 66.1016 23.4664C66.0691 23.5517 66.0094 23.5944 65.9227 23.5944H64.1499C64.0414 23.5944 63.9493 23.5624 63.8734 23.4984C63.8083 23.4237 63.7812 23.3384 63.7921 23.2424C63.8029 22.9543 63.9439 22.6343 64.2149 22.2822C64.4969 21.9302 64.9197 21.6261 65.4836 21.3701C66.0582 21.114 66.763 20.986 67.5979 20.986C68.9316 20.986 69.9183 21.2794 70.558 21.8662C71.1977 22.4422 71.5176 23.221 71.5176 24.2025V29.0672C71.5176 29.1739 71.4797 29.2699 71.4038 29.3553C71.3279 29.43 71.2303 29.4673 71.111 29.4673H69.2243C69.1159 29.4673 69.0183 29.43 68.9316 29.3553C68.8557 29.2699 68.8177 29.1739 68.8177 29.0672V28.5072C68.5792 28.8379 68.2431 29.1099 67.8093 29.3233C67.3865 29.526 66.8823 29.6273 66.2968 29.6273ZM67.0612 27.8031C67.56 27.8031 67.9611 27.643 68.2647 27.323C68.5792 27.0029 68.7364 26.5335 68.7364 25.9148V25.6907L67.3539 25.9308C66.3781 26.1015 65.8902 26.4375 65.8902 26.9389C65.8902 27.2056 66.004 27.419 66.2317 27.579C66.4594 27.7284 66.7359 27.8031 67.0612 27.8031Z" fill="#4949E4"/>
<path d="M77.6157 29.4673C75.3712 29.4673 74.249 28.4165 74.249 26.3148V23.2424H72.9804C72.8611 23.2424 72.7581 23.205 72.6714 23.1303C72.5955 23.0557 72.5575 22.9597 72.5575 22.8423V21.5461C72.5575 21.4288 72.5955 21.3327 72.6714 21.2581C72.7581 21.1834 72.8611 21.146 72.9804 21.146H74.249V18.5057C74.249 18.3883 74.2869 18.2923 74.3628 18.2176C74.4496 18.1429 74.5472 18.1056 74.6556 18.1056H76.5423C76.6615 18.1056 76.7591 18.1429 76.835 18.2176C76.9109 18.2923 76.9489 18.3883 76.9489 18.5057V21.146H78.9819C79.1012 21.146 79.1988 21.1834 79.2747 21.2581C79.3614 21.3327 79.4048 21.4288 79.4048 21.5461V22.8423C79.4048 22.9597 79.3614 23.0557 79.2747 23.1303C79.1988 23.205 79.1012 23.2424 78.9819 23.2424H76.9489V26.0908C76.9489 26.8802 77.2579 27.275 77.8759 27.275H79.1283C79.2476 27.275 79.3451 27.3123 79.421 27.387C79.4969 27.4617 79.5349 27.5577 79.5349 27.675V29.0672C79.5349 29.1739 79.4969 29.2699 79.421 29.3553C79.3451 29.43 79.2476 29.4673 79.1283 29.4673H77.6157Z" fill="#4949E4"/>
</svg>
